# AST/ASF file generated using VICON BodyLanguage
# -----------------------------------------------
:version 1.10
:name VICON
:units
  mass 1.0
  length 0.45
  angle deg
:documentation
   .ast/.asf automatically generated from VICON data using
   VICON BodyBuilder and BodyLanguage model FoxedUp or BRILLIANT.MOD
:root
   order TX TY TZ RX RY RZ
   axis XYZ
   position 0 0 0  
   orientation 0 0 0 
:bonedata
  begin
     id 1 
     name lhipjoint
     direction 0.610259 -0.730986 0.305356 
     length 2.50941 
     axis 0 0 0  XYZ
  end
  begin
     id 2 
     name lfemur
     direction 0.34202 -0.939693 0  
     length 7.48822  
     axis 0 0 20  XYZ
    dof rx ry rz
    limits (-160.0 20.0)
           (-70.0 70.0)
           (-60.0 70.0)
  end
  begin
     id 3 
     name ltibia
     direction 0.34202 -0.939693 0   
     length 7.60141   
     axis 0 0 20   XYZ
    dof rx
    limits (-10.0 170.0)
  end
  begin
     id 4 
     name lfoot
     direction 0.0673488 -0.185039 0.980421   
     length 2.04049   
     axis -90 7.62852e-016 20   XYZ
    dof rx rz
    limits (-45.0 90.0)
           (-70.0 20.0)
  end
  begin
     id 5 
     name ltoes
     direction 1.5356e-011 -4.21729e-011 1   
     length 1.02897   
     axis -90 7.62852e-016 20   XYZ
    dof rx
    limits (-90.0 20.0)
  end
  begin
     id 6 
     name rhipjoint
     direction -0.57612 -0.754205 0.315056   
     length 2.43216  
     axis 0 0 0  XYZ 
  end
  begin
     id 7 
     name rfemur
     direction -0.34202 -0.939693 0   
     length 7.42799   
     axis 0 0 -20   XYZ
    dof rx ry rz
    limits (-160.0 20.0)
           (-70.0 70.0)
           (-70.0 60.0)
  end
  begin
     id 8 
     name rtibia
     direction -0.34202 -0.939693 0   
     length 7.69484   
     axis 0 0 -20   XYZ
    dof rx
    limits (-10.0 170.0)
 end
 begin
     id 9 
     name rfoot
     direction -0.111837 -0.30727 0.945028   
     length 2.15769  
     axis -90 -7.62852e-016 -20   XYZ
    dof rx rz
    limits (-45.0 90.0)
           (-20.0 70.0)
  end
  begin
     id 10 
     name rtoes
     direction -1.53539e-011 -4.21878e-011 1   
     length 1.07391   
     axis -90 -7.62852e-016 -20   XYZ
    dof rx
    limits (-90.0 20.0)
  end
  begin
     id 11 
     name lowerback
     direction 0.00552624 0.990109 -0.140195   
     length 2.12403   
     axis 0 0 0   XYZ
    dof rx ry rz
    limits (-20.0 45.0)
           (-30.0 30.0)
           (-30.0 30.0)
  end
  begin
     id 12 
     name upperback
     direction 0.00361898 0.999976 -0.00584723   
     length 2.13232   
     axis 0 0 0   XYZ
    dof rx ry rz
    limits (-20.0 45.0)
           (-30.0 30.0)
           (-30.0 30.0)
  end
  begin
     id 13 
     name thorax
     direction -0.000331275 0.998253 0.0590847   
     length 2.17688   
     axis 0 0 0   XYZ
    dof rx ry rz
    limits (-20.0 45.0)
           (-30.0 30.0)
           (-30.0 30.0)
  end
  begin
     id 14 
     name lowerneck
     direction -0.0561561 0.979832 0.19177   
     length 1.64159   
     axis 0 0 0   XYZ
    dof rx ry rz
    limits (-20.0 45.0)
           (-30.0 30.0)
           (-30.0 30.0)
  end
  begin
     id 15 
     name upperneck
     direction 0.0827153 0.979385 -0.184293   
     length 1.68939   
     axis 0 0 0   XYZ
    dof rx ry rz
    limits (-20.0 45.0)
           (-30.0 30.0)
           (-30.0 30.0)
  end
  begin
     id 16
     name head
     direction 0.0278583 0.995936 -0.0856488  
     length 1.70207  
     axis 0 0 0   XYZ
    dof rx ry rz
    limits (-20.0 45.0)
           (-30.0 30.0)
           (-30.0 30.0)
  end
  begin
     id 17 
     name lclavicle
     direction 0.950993 0.301131 -0.0702275  
     length 3.41652  
     axis 0 0 0   XYZ
    dof ry rz
    limits (-20.0 10.0)
           (0.0 20.0)
  end
  begin
     id 18 
     name lhumerus
     direction 1 -4.48981e-011 -3.9662e-029   
     length 5.32955   
     axis 180 -30 -90   XYZ
    dof rx ry rz
    limits (-60.0 90.0)
           (-90.0 90.0)
           (-90.0 90.0)
  end
  begin
     id 19
     name lradius
     direction 1 -4.48925e-011 -9.0549e-027   
     length 3.69232   
     axis 180 -30 -90   XYZ
    dof rx
    limits (-10.0 170.0)
  end
  begin
     id 20
     name lwrist
     direction 1 -4.49007e-011 -1.49005e-026   
     length 1.84616   
     axis 9.0955e-015 90 90   XYZ
    dof ry
    limits (-180.0 0.0)
 end
  begin
     id 21 
     name lhand
     direction 1 -4.49016e-011 -2.98023e-026   
     length 0.536598   
     axis 1.90115e-014 90 90   XYZ
    dof rx rz
    limits (-90.0 90.0)
           (-45.0 45.0)
  end
  begin
     id 22 
     name lfingers
     direction 1 -4.48924e-011 -5.9578e-026   
     length 0.432619   
     axis 3.80223e-014 90 90   XYZ
    dof rx
    limits (0.0 90.0)
  end
  begin
     id 23
     name lthumb
     direction 0.707107 -6.34947e-011 0.707107   
     length 0.621157   
     axis -90 45 -3.84942e-014   XYZ
    dof rx rz
    limits (-45.0 45.0)
           (-45.0 45.0)
  end
  begin
     id 24 
     name rclavicle
     direction -0.955495 0.276497 -0.102848   
     length 3.36357  
     axis 0 0 0   XYZ 
    dof ry rz
    limits (-10.0 20.0)
           (-20.0 0.0)
  end
  begin
     id 25 
     name rhumerus
     direction -1 -4.48961e-011 3.30983e-027  
     length 5.23431   
     axis 180 30 90   XYZ
    dof rx ry rz
    limits (-90.0 60.0)
           (-90.0 90.0)
           (-90.0 90.0)
  end
  begin
     id 26 
     name rradius
     direction -1 -4.48965e-011 -6.63263e-027   
     length 3.55301   
     axis 180 30 90   XYZ
    dof rx
    limits (-10.0 170.0)
  end
  begin
     id 27 
     name rwrist
     direction -1 -4.48942e-011 -1.48958e-026   
     length 1.77651   
     axis 9.0955e-015 -90 -90   XYZ
    dof ry
    limits (-180.0 0.0)
  end
  begin
     id 28
     name rhand
     direction -1 -4.48977e-011 -2.97966e-026   
     length 0.772522   
     axis 1.90115e-014 -90 -90   XYZ
    dof rx rz
    limits (-90.0 90.0)
           (-45.0 45.0)
  end
  begin
     id 29
     name rfingers
     direction -1 -4.49135e-011 -5.96389e-026   
     length 0.622827   
     axis 3.80223e-014 -90 -90   XYZ
    dof rx
    limits (0.0 90.0)
  end
  begin
     id 30
     name rthumb
     direction -0.707107 -6.34969e-011 0.707107   
     length 0.894259   
     axis -90 -45 3.84942e-014   XYZ
    dof rx rz
    limits (-45.0 45.0)
           (-45.0 45.0)
  end
:hierarchy
  begin
    root lhipjoint rhipjoint lowerback
    lhipjoint lfemur
    lfemur ltibia
    ltibia lfoot
    lfoot ltoes
    rhipjoint rfemur
    rfemur rtibia
    rtibia rfoot
    rfoot rtoes
    lowerback upperback
    upperback thorax
    thorax lowerneck lclavicle rclavicle
    lowerneck upperneck
    upperneck head
    lclavicle lhumerus
    lhumerus lradius
    lradius lwrist
    lwrist lhand lthumb
    lhand lfingers
    rclavicle rhumerus
    rhumerus rradius
    rradius rwrist
    rwrist rhand rthumb
    rhand rfingers
  end

#!OML:ASF F:\VICON\USERDATA\INSTALL\rory3\rory3.ASF
:FULLY-SPECIFIED
:DEGREES
63
root 15.4542 17.8027 -10.9495 1.43491 -50.1914 2.49244
lowerback 6.58589 0.18364 -1.08058
upperback -0.52005 0.195077 0.913111
thorax -4.2405 0.130785 1.53253
lowerneck -21.0069 -3.69929 -9.61536
upperneck 26.6756 -4.14379 6.71564
head 12.7341 -1.98518 3.49681
rclavicle -2.65874e-014 4.37326e-015
rhumerus -36.468 -3.35428 -80.2749
rradius 33.6526
rwrist 3.91737
rhand -15.8737 10.5761
rfingers 7.12502
rthumb 10.322 -19.1506
lclavicle -2.65874e-014 4.37326e-015
lhumerus -37.2037 0.937102 84.1528
lradius 33.9987
lwrist -4.63265
lhand -15.7574 25.1323
lfingers 7.12502
lthumb 10.4342 54.8534
rfemur -10.9422 0.840745 22.9904
rtibia 34.1817
rfoot -21.1218 -6.99425
rtoes -0.297303
lfemur -8.0721 -5.02496 -23.2115
ltibia 26.9886
lfoot -15.8484 5.45426
ltoes -5.24214
64
root 15.4547 17.8021 -10.951 1.36145 -50.183 2.56153
lowerback 6.60512 0.184095 -1.13463
upperback -0.519117 0.191028 0.907959
thorax -4.25044 0.13003 1.55802
lowerneck -20.9293 -3.70592 -9.66785
upperneck 26.5813 -4.15228 6.76446
head 12.6837 -1.98763 3.52117
rclavicle 4.88016e-014 1.51076e-014
rhumerus -36.461 -3.23697 -80.3162
rradius 33.8291
rwrist 3.83668
rhand -15.9316 10.4973
rfingers 7.12502
rthumb 10.2662 -19.2321
lclavicle 4.88016e-014 1.51076e-014
lhumerus -37.1573 0.785069 84.2364
lradius 33.9963
lwrist -4.52321
lhand -15.8359 25.0395
lfingers 7.12502
lthumb 10.3585 54.7644
rfemur -10.9429 0.692023 22.9351
rtibia 34.1956
rfoot -21.1025 -6.95362
rtoes -0.811594
lfemur -8.04049 -5.08677 -23.2667
ltibia 26.9723
lfoot -15.8322 5.51104
ltoes -5.3758
65
root 15.455 17.8007 -10.955 1.29146 -50.1551 2.6326
lowerback 6.64042 0.188538 -1.17445
upperback -0.514774 0.191739 0.865796
thorax -4.26584 0.130928 1.53667
lowerneck -20.9515 -3.80684 -9.55359
upperneck 26.4054 -4.26987 6.59164
head 12.6227 -2.04656 3.40896
rclavicle 9.45718e-014 -1.98785e-015
rhumerus -36.4444 -3.19444 -80.3625
rradius 34.0112
rwrist 3.69642
rhand -15.8811 10.3589
rfingers 7.12502
rthumb 10.3149 -19.3682
lclavicle 9.45718e-014 -1.98785e-015
lhumerus -37.0704 0.794447 84.1891
lradius 33.9776
lwrist -4.49647
lhand -15.7129 24.8041
lfingers 7.12502
lthumb 10.4771 54.523
rfemur -10.9532 0.612871 22.887
rtibia 34.2199
rfoot -21.0685 -6.82196
rtoes -0.350137
lfemur -8.02314 -5.08799 -23.3125
ltibia 26.9467
lfoot -15.8358 5.57496
ltoes -5.96259
66
root 15.4538 17.799 -10.9604 1.19508 -50.1268 2.81284
lowerback 6.62334 0.201308 -1.32033
upperback -0.551292 0.195383 0.815584
thorax -4.29469 0.136118 1.56638
lowerneck -20.8361 -3.84896 -9.54708
upperneck 26.2768 -4.32897 6.5648
head 12.5529 -2.07551 3.38432
rclavicle 7.09661e-014 9.93923e-015
rhumerus -36.5101 -3.08149 -80.4291
rradius 34.2261
rwrist 3.50444
rhand -15.8668 10.3192
rfingers 7.12502
rthumb 10.3286 -19.4072
lclavicle 7.09661e-014 9.93923e-015
lhumerus -37.0573 0.895567 84.1051
lradius 33.9819
lwrist -4.56142
lhand -15.1424 24.8648
lfingers 7.12502
lthumb 11.0274 54.5551
rfemur -11.0154 0.651632 22.7756
rtibia 34.2509
rfoot -21.1075 -6.80038
rtoes 0.128068
lfemur -8.06711 -5.04204 -23.4235
ltibia 26.9185
lfoot -15.7811 5.61085
ltoes -6.69128
67
root 15.4546 17.7969 -10.9628 1.16039 -50.0923 2.88315
lowerback 6.60463 0.188689 -1.36452
upperback -0.575935 0.175164 0.811763
thorax -4.30916 0.127422 1.58937
lowerneck -20.6913 -3.82637 -9.64852
upperneck 26.2141 -4.2941 6.63351
head 12.4995 -2.06327 3.43333
rclavicle -3.00662e-014 2.38542e-015
rhumerus -36.5275 -2.94978 -80.4675
rradius 34.3832
rwrist 3.39647
rhand -15.9341 10.3272
rfingers 7.12502
rthumb 10.2637 -19.4024
lclavicle -3.00662e-014 2.38542e-015
lhumerus -37.065 1.04195 84.078
lradius 33.974
lwrist -4.80365
lhand -14.8354 25.0959
lfingers 7.12502
lthumb 11.3235 54.7702
rfemur -11.044 0.607217 22.7386
rtibia 34.2575
rfoot -21.123 -6.96196
rtoes -0.660992
lfemur -8.1023 -5.0148 -23.4607
ltibia 26.9219
lfoot -15.7627 5.50664
ltoes -6.04527
68
root 15.4568 17.7956 -10.963 1.22473 -50.0613 2.77552
lowerback 6.60586 0.163461 -1.23098
upperback -0.563016 0.152088 0.810661
thorax -4.29506 0.112613 1.51544
lowerneck -20.69 -3.79894 -9.71486
upperneck 26.2161 -4.25934 6.72391
head 12.5003 -2.04286 3.48596
rclavicle -2.87741e-014 1.59028e-015
rhumerus -36.4358 -3.00793 -80.4807
rradius 34.4375
rwrist 3.40042
rhand -15.778 10.4475
rfingers 7.12502
rthumb 10.4143 -19.2746
lclavicle -2.87741e-014 1.59028e-015
lhumerus -37.0409 1.01425 84.0797
lradius 33.9771
lwrist -4.80208
lhand -14.8546 25.1042
lfingers 7.12502
lthumb 11.305 54.7796
rfemur -11.0161 0.567114 22.8127
rtibia 34.2334
rfoot -21.1872 -7.00295
rtoes -0.295881
lfemur -8.12201 -4.95224 -23.3636
ltibia 26.9624
lfoot -15.8208 5.22075
ltoes -4.59651
69
root 15.4593 17.7968 -10.9658 1.2755 -50.0061 2.71776
lowerback 6.61521 0.149396 -1.1516
upperback -0.566791 0.13936 0.804927
thorax -4.30352 0.104472 1.46615
lowerneck -20.767 -3.80195 -9.77358
upperneck 26.307 -4.25365 6.76781
head 12.5544 -2.04068 3.51619
rclavicle -1.71949e-013 -3.97569e-015
rhumerus -36.3694 -3.14321 -80.4422
rradius 34.5065
rwrist 3.35998
rhand -15.625 10.6038
rfingers 7.12502
rthumb 10.5619 -19.1108
lclavicle -1.71949e-013 -3.97569e-015
lhumerus -37.0008 1.03012 84.0875
lradius 34.0075
lwrist -4.72905
lhand -14.7559 24.9971
lfingers 7.12502
lthumb 11.4002 54.6672
rfemur -11.0074 0.563172 22.8628
rtibia 34.1951
rfoot -21.2588 -6.93023
rtoes 0.537811
lfemur -8.1819 -4.82271 -23.2919
ltibia 27.0295
lfoot -15.8955 4.96834
ltoes -3.98506
